# xmcd CD database file
#
# Track frame offsets:
#	150
#	26290
#	49735
#	72222
#	90795
#	111597
#	132377
#	153932
#	177812
#	199610
#	220475
#
# Disc length: 3211 seconds
#
# Revision: 0
# Processed by: cddbd v1.5.1PL2 Copyright (c) Steve Scherf et al.
# Submitted via: CDex 1.50Beta5
#
DISCID=900c890b
DTITLE=Selena (Various Artists) - Familia RMM Recordanda A Selena
DYEAR=1996
DGENRE=Salsa
TTITLE0=Recordando A Selena - Various Artists
TTITLE1=Donde Quiera Que Estes - Isidro infante and La Elite
TTITLE2=No Me Queda Mas - Tito Nieves
TTITLE3=I Could Fall In Love - Los Jovenes Del Barrio
TTITLE4=Fotos Y Recuerdos - Jose Alberto "EL CANARIO"
TTITLE5=Amor Prohibido - Yolanda Duke
TTITLE6=Dreaming Of You - Ray Sepulveda
TTITLE7=Yo Te Amo - Michael Stuart
TTITLE8=Si Una Vez - Manny Manuel
TTITLE9=Tus Desprecios - Celines
TTITLE10=Selena's Medley: I Could Fall In Love - Dreaming Of You - Amor Prohibido - Como La Flor - Hilton Ruiz
EXTD=YEAR: 1996
EXTT0=
EXTT1=
EXTT2=
EXTT3=
EXTT4=
EXTT5=
EXTT6=
EXTT7=
EXTT8=
EXTT9=
EXTT10=
PLAYORDER=
